<svg viewBox="0 0 1440 111" fill="none" xmlns="http://www.w3.org/2000/svg">
  <path d="M1463.76-1.308V56.4c-24.44.256-38.86 4.6-51.27 9.022-19.88 7.078-47.15 9.015-75.6 10.234-19.59.84-35.13 1.659-44.32 7.797-5.04 3.359-20.08 6.567-33.06 7.78-43.47 4.066-77.69 12.554-117.66 18.222-11.09 1.572-20.75 2.303-31.59.441-17.09-2.935-34.7-5.685-50.98-8.94-18.47-3.696-37.34-6.944-59.398-8.731-9.496-.766-19.572-1.886-26.896-3.655-20.731-4.995-46.51-5.616-71.171-7.467-19.697-1.48-38.896-3.562-57.765-5.738-4.738-.545-9.538-2.367-10.634-3.823-2.317-3.063-9.58-3.568-18.352-3.788-8.813-.22-17.668-.366-26.482-.592-15.807-.406-28.282-2.303-36.165-6.335-1.428-.737-3.786-1.567-6.393-1.85-33.062-3.598-65.73-7.404-101.088-9.208-15.745-.8-30.269-3.405-45.455-5.111-9.579-1.073-19.427-1.95-29.027-3-14.152-1.549-28.655-2.906-42.144-4.832-14.648-2.089-29.007-2.942-45.289-1.92-28.614 1.804-53.875-.917-77.772-5.071a5678.984 5678.984 0 00-30.889-5.28c-16.551-2.79-33.31-3.718-52.737-1.937-48.558 4.455-97.157 2.216-144.991-1.184-9.952-.707-18.062-3.405-27.103-5.157-4.821-.934-9.6-1.903-14.752-2.663-11.668-1.712-23.151-3.632-35.482-4.85-14.586-1.445-29.937-2.292-45.04-3.295C42.15 4.662 29.82 4.134 17.82 3.24 11.945 2.8 6.586 1.8 1 1.059V-.98c622.667-.006 1443.85-.374 1462.76-.327z" fill="#E9E2CF"/>
</svg>