<svg fill="none" xmlns="http://www.w3.org/2000/svg" viewBox="0 0 1440 190">
  <g clip-path="url(#clip0)">
    <path d="M-17.759-2.24v98.78c24.435.438 38.855 7.876 51.269 15.443 19.882 12.115 47.15 15.432 75.599 17.517 19.593 1.44 35.13 2.84 44.316 13.347 5.048 5.75 20.09 11.241 33.062 13.317 43.468 6.961 77.688 21.49 117.66 31.192 11.09 2.691 20.752 3.942 31.593.754 17.089-5.024 34.696-9.731 50.979-15.303 18.475-6.325 37.344-11.886 59.399-14.945 9.496-1.311 19.572-3.227 26.896-6.256 20.73-8.55 46.509-9.613 71.171-12.781 19.696-2.532 38.896-6.097 57.765-9.821 4.738-.934 9.538-4.052 10.634-6.544 2.317-5.244 9.579-6.108 18.352-6.485 8.813-.377 17.668-.626 26.482-1.013 15.807-.695 28.282-3.942 36.165-10.844 1.428-1.261 3.786-2.681 6.393-3.168 33.062-6.157 65.73-12.671 101.088-15.76 15.745-1.37 30.269-5.83 45.455-8.749 9.579-1.837 19.427-3.336 29.027-5.134 14.152-2.651 28.655-4.975 42.144-8.272 14.648-3.575 29.007-5.035 45.289-3.287 28.614 3.089 53.871-1.569 77.771-8.68 10.24-3.048 20.55-6.057 30.89-9.036 16.55-4.777 33.31-6.365 52.74-3.317 48.55 7.627 97.15 3.794 144.99-2.026 9.95-1.211 18.06-5.829 27.1-8.828 4.82-1.599 9.6-3.257 14.75-4.558 11.67-2.93 23.15-6.217 35.48-8.302 14.59-2.473 29.94-3.923 45.05-5.64 12.1-1.38 24.43-2.285 36.43-3.814 5.88-.755 11.23-2.463 16.82-3.734V-1.68C822.333-1.69 1.152-2.32-17.759-2.24z" fill="#343D54"/>
  </g>
  <defs>
    <clipPath id="clip0">
      <path fill="#fff" transform="rotate(180 723 95)" d="M0 0h1452v190H0z"/>
    </clipPath>
  </defs>
</svg>