<svg viewBox="0 0 1440 111" xmlns="http://www.w3.org/2000/svg">
  <path d="M-17.759-1.308V56.4c24.435.256 38.855 4.6 51.269 9.022 19.882 7.078 47.15 9.015 75.599 10.234 19.593.84 35.13 1.659 44.316 7.797 5.048 3.359 20.09 6.567 33.062 7.78 43.468 4.066 77.688 12.554 117.66 18.222 11.09 1.572 20.752 2.303 31.593.441 17.089-2.935 34.696-5.685 50.979-8.94 18.475-3.696 37.344-6.945 59.399-8.731 9.496-.766 19.572-1.886 26.896-3.655 20.73-4.995 46.509-5.616 71.171-7.467 19.696-1.48 38.896-3.562 57.765-5.738 4.738-.545 9.538-2.367 10.634-3.823 2.317-3.063 9.579-3.568 18.352-3.788 8.813-.22 17.668-.366 26.482-.592 15.807-.406 28.282-2.303 36.165-6.335 1.428-.737 3.786-1.567 6.393-1.851 33.062-3.597 65.73-7.403 101.088-9.207 15.745-.8 30.269-3.405 45.455-5.111 9.579-1.074 19.427-1.95 29.027-3 14.152-1.549 28.655-2.906 42.144-4.832 14.648-2.089 29.007-2.942 45.289-1.92 28.614 1.804 53.871-.917 77.771-5.071 10.24-1.781 20.55-3.54 30.89-5.28 16.55-2.79 33.31-3.718 52.74-1.937 48.55 4.455 97.15 2.216 144.99-1.184 9.95-.708 18.06-3.405 27.1-5.157 4.82-.934 9.6-1.903 14.75-2.663 11.67-1.712 23.15-3.632 35.48-4.85 14.59-1.445 29.94-2.292 45.05-3.296 12.1-.806 24.43-1.334 36.43-2.227 5.88-.441 11.23-1.44 16.82-2.182V-.98C822.333-.987 1.152-1.355-17.759-1.308z" fill="#161d30"/>
</svg>