<svg xmlns="http://www.w3.org/2000/svg" viewBox="0 0 32 32">
  <path d="M29.428 0H2.572A2.573 2.573 0 000 2.572v26.856A2.573 2.573 0 002.572 32h26.856A2.573 2.573 0 0032 29.428V2.572A2.573 2.573 0 0029.428 0zm0 29.44c-17.912-.004-26.868-.008-26.868-.012.004-17.912.008-26.868.012-26.868 17.912.004 26.868.008 26.868.012-.004 17.912-.008 26.868-.012 26.868zM4.744 11.996h4.748v15.272H4.744V11.996zM7.12 9.908A2.754 2.754 0 009.066 5.21a2.752 2.752 0 00-4.698 1.946A2.747 2.747 0 007.12 9.908zm10.092 9.804c0-1.992.38-3.92 2.848-3.92 2.432 0 2.468 2.276 2.468 4.048v7.428h4.744v-8.376c0-4.112-.888-7.276-5.692-7.276-2.308 0-3.856 1.268-4.492 2.468h-.064v-2.088h-4.556v15.272h4.744v-7.556z"/>
</svg>