<svg fill="none" xmlns="http://www.w3.org/2000/svg" viewBox="0 0 32 16">
  <path d="M31.76 8C31.683 3.749 28.172.364 23.921.437c-.391 0-.801.032-1.203.068-3.359.495-5.599 2.907-6.839 4.76C14.614 3.412 12.359 1 9.026.505A13.36 13.36 0 007.827.437C3.578.374.078 3.754-.001 8c.079 4.245 3.579 7.625 7.828 7.563.401 0 .797-.032 1.224-.084 3.36-.479 5.599-2.891 6.855-4.744 1.265 1.853 3.505 4.265 6.853 4.76.412.036.803.068 1.213.068 4.229.041 7.71-3.333 7.788-7.563zM8.64 12.803c-.265.052-.572.052-.837.052a5.027 5.027 0 01-5.136-4.881 5.038 5.038 0 015.145-4.88c.267 0 .563.027.839.052 3.161.469 5.095 3.563 5.751 4.828-.667 1.267-2.599 4.401-5.751 4.829H8.64zM17.333 8c.651-1.24 2.588-4.36 5.745-4.828.271-.052.561-.052.828-.052A5.01 5.01 0 0129.067 8a5.046 5.046 0 01-5.147 4.88 8.424 8.424 0 01-.828-.052C19.947 12.36 17.999 9.24 17.348 8h-.015zm-11.718.787h4.719V7.24H5.626v1.547h-.011zm18.838 0h1.588V7.24h-1.604V5.651h-1.505v1.604h-1.599v1.532h1.599v1.573h1.537V8.803l-.016-.016z"/>
</svg>