<svg width="32" height="32" viewBox="0 0 32 32" fill="none" xmlns="http://www.w3.org/2000/svg">
<g clip-path="url(#clip0)">
<path d="M31.76 16C31.683 11.749 28.172 8.364 23.921 8.437C23.53 8.437 23.12 8.469 22.718 8.505C19.359 9 17.119 11.412 15.879 13.265C14.614 11.412 12.359 9 9.02599 8.505C8.62755 8.46438 8.22748 8.44169 7.82699 8.437C3.57799 8.374 0.0779929 11.754 -0.00100708 16C0.0779929 20.245 3.57799 23.625 7.82699 23.563C8.22799 23.563 8.62399 23.531 9.05099 23.479C12.411 23 14.65 20.588 15.906 18.735C17.171 20.588 19.411 23 22.759 23.495C23.171 23.531 23.562 23.563 23.972 23.563C28.201 23.604 31.681 20.23 31.759 16H31.76ZM8.63999 20.803C8.37499 20.855 8.06799 20.855 7.80299 20.855C6.47591 20.8843 5.19109 20.3876 4.22889 19.4732C3.26669 18.5587 2.70522 17.3009 2.66699 15.974C2.70833 14.6467 3.27204 13.3894 4.23553 12.4755C5.19902 11.5617 6.48435 11.0652 7.81199 11.094C8.07899 11.094 8.37499 11.121 8.65099 11.146C11.812 11.615 13.746 14.709 14.402 15.974C13.735 17.241 11.803 20.375 8.65099 20.803H8.63999ZM17.333 16C17.984 14.76 19.921 11.64 23.078 11.172C23.349 11.12 23.639 11.12 23.906 11.12C24.5657 11.1 25.2228 11.2106 25.8396 11.4453C26.4565 11.68 27.0209 12.0342 27.5004 12.4877C27.98 12.9411 28.3653 13.4848 28.6341 14.0876C28.9029 14.6903 29.05 15.3402 29.067 16C29.0236 17.327 28.459 18.5834 27.4955 19.4968C26.532 20.4103 25.2474 20.9073 23.92 20.88C23.6433 20.8763 23.367 20.8589 23.092 20.828C19.947 20.36 17.999 17.24 17.348 16H17.333ZM5.61499 16.787H10.334V15.24H5.62599V16.787H5.61499ZM24.453 16.787H26.041V15.24H24.437V13.651H22.932V15.255H21.333V16.787H22.932V18.36H24.469V16.803L24.453 16.787ZM32 9.412C32 9.812 31.708 10.093 31.292 10.093C31.2017 10.0966 31.1116 10.0821 31.0269 10.0503C30.9423 10.0186 30.8649 9.97016 30.7993 9.908C30.7337 9.84583 30.6812 9.77115 30.6449 9.68837C30.6086 9.60559 30.5893 9.51638 30.588 9.426C30.588 9.051 30.907 8.734 31.292 8.734C31.708 8.734 32 9.026 32 9.411V9.412ZM30.787 9.412C30.787 9.708 31 9.948 31.318 9.948C31.615 9.948 31.829 9.708 31.829 9.412C31.829 9.12 31.616 8.88 31.318 8.88C31.001 8.855 30.787 9.093 30.787 9.412ZM31.188 9.76H31.052V9.068L31.317 9.052C31.437 9.052 31.505 9.068 31.562 9.093C31.614 9.12 31.639 9.172 31.639 9.24C31.639 9.317 31.587 9.375 31.494 9.385C31.562 9.412 31.587 9.469 31.614 9.562L31.65 9.734H31.494C31.469 9.707 31.469 9.639 31.437 9.562C31.412 9.494 31.385 9.469 31.292 9.469H31.229L31.197 9.76H31.188ZM31.213 9.36H31.292C31.385 9.36 31.427 9.349 31.427 9.265C31.427 9.197 31.386 9.172 31.292 9.172H31.197V9.36H31.213Z" fill="black"/>
</g>
<defs>
<clipPath id="clip0">
<rect width="32" height="32" fill="white"/>
</clipPath>
</defs>
</svg>
