<svg xmlns="http://www.w3.org/2000/svg" fill="none" viewBox="0 0 32 18">
  <title>Koa.js</title>
  <path stroke="#282a36" stroke-width="1" d="M1.603 0v11.945l5.04-5.948h.228L3.138 10.41l4.924 7.58H6.46l-4.237-6.524-.619.743v5.781H0V0h1.603zm7.96 12.091c0-3.891 2.398-6.058 5.52-6.058 2.872 0 5.337 1.538 5.337 5.779 0 3.891-2.397 6.058-5.519 6.058-2.872 0-5.338-1.538-5.338-5.779zm1.487.001c0 4.1 1.719 5.623 3.85 5.623 2.246 0 4.033-2.156 4.033-5.904 0-4.1-1.719-5.622-3.85-5.622-2.245 0-4.033 2.155-4.033 5.903zm20.262 5.709c-2.708 0-2.575-1.655-2.575-1.655v-.326c-.444.839-1.287 2.074-3.485 2.074-2.597 0-3.04-1.724-3.174-2.656-.222-1.562.31-2.727 4.262-3.006.999-.094 2.13-.047 2.397-.024V8.34s.244-2.097-2.33-2.097c-1.377 0-3.086.606-3.64.932l-.09-.163c.289-.14 1.643-.956 4.018-.956 3.218 0 3.596 1.492 3.596 2.284v7.806c0 1.515 1.02 1.468 1.02 1.468H32v.187h-.688zm-5.671-.063c1.664 0 3.021-1.586 3.087-2.533V12.34c-.263-.024-1.292-.119-2.387.023-2.32.285-2.78 1.137-2.65 2.865.088 1.16.417 2.51 1.95 2.51z"/>
</svg>