<svg xmlns="http://www.w3.org/2000/svg" viewBox="0 0 34 34">
  <path d="M20.019.067a2.14 2.14 0 00-.684.123c.447.297.694.694.816 1.142.01.06.027.105.035.165.01.053.017.106.018.16.034.771-.202.869-.368 1.325a1.876 1.876 0 00.122 1.728c.028.069.063.134.105.194-.333-2.22 1.52-2.554 1.861-3.248.027-.606-.473-1.01-.868-1.29a1.94 1.94 0 00-1.037-.298V.067zm2.792.5c-.034.202-.008.15-.017.255-.008.07-.008.158-.017.228-.018.07-.035.141-.062.21-.017.072-.043.143-.071.212l-.095.201c-.028.035-.044.07-.07.106l-.053.078c-.042.06-.086.119-.132.176-.052.054-.096.115-.159.159V2.2c-.052.044-.104.096-.167.142-.184.14-.394.245-.588.377-.06.042-.123.079-.175.131-.06.042-.116.09-.167.14-.061.053-.105.105-.158.168-.044.052-.096.113-.131.175a2.26 2.26 0 00-.124.185c-.035.07-.06.131-.096.2-.027.072-.052.132-.07.203a2.785 2.785 0 00-.062.22c-.008.035-.008.08-.017.113-.01.036-.01.071-.018.107 0 .07-.009.148-.009.22 0 .051 0 .104.009.156 0 .071.008.142.027.22.008.07.025.142.042.212.028.07.046.14.071.21.018.043.044.088.062.123l-2.02-.782a22 22 0 00-1.018-.263l-.553-.132a16.395 16.395 0 00-1.598-.237c-.018 0-.027-.008-.044-.008a15.7 15.7 0 00-2.723-.035 16.78 16.78 0 00-2.792.439l-.395.105c-.13.052-.255.113-.377.167l-.29.131c-.017.009-.034.009-.043.018-.09.043-.167.079-.246.123-.114.05-.226.106-.335.167-.06.025-.122.06-.175.088a.792.792 0 01-.078.042c-.08.046-.159.09-.23.133-.072.04-.142.084-.21.132-.062.043-.123.078-.175.122-.009.01-.019.01-.027.018-.053.036-.113.08-.167.124l-.017.017-.132.104c-.017.01-.035.027-.052.036-.044.035-.088.08-.132.113-.009.019-.027.029-.036.036-.052.053-.104.097-.157.15-.01 0-.01.008-.018.017a2.469 2.469 0 00-.158.15c-.01.008-.01.017-.018.017-.046.045-.09.092-.132.142-.017.017-.042.034-.06.05a1.947 1.947 0 01-.15.16c-.01.016-.026.026-.035.042-.07.07-.132.141-.202.212l-.026.026c-.142.15-.29.299-.449.43a4.783 4.783 0 01-.492.387 5.35 5.35 0 01-1.079.597c-.184.079-.378.15-.57.21-.37.08-.748.229-1.072.256-.07 0-.149.017-.22.025l-.22.053-.21.079c-.071.027-.14.062-.21.096-.062.044-.132.08-.194.124a1.431 1.431 0 00-.176.15c-.06.042-.123.105-.175.157-.053.06-.105.113-.149.176-.044.07-.096.131-.132.202a1.552 1.552 0 00-.123.201c-.035.08-.07.15-.096.229-.027.07-.053.15-.08.228-.017.07-.035.141-.042.212 0 .007-.01.017-.01.026-.017.079-.017.184-.027.236-.009.063-.017.114-.017.176a.93.93 0 00.105.439v.008c.027.053.062.107.098.16.034.052.07.104.113.156.044.044.096.098.15.142.051.051.107.098.166.14.21.184.263.245.535.386.044.027.088.044.142.07.008 0 .017.009.025.009 0 .018 0 .027.009.044.02.145.059.287.113.422.029.053.046.105.071.157.01.019.019.036.028.044.034.071.07.132.104.194l.132.184c.044.053.097.114.15.168.052.052.105.096.167.148 0 0 .008.009.017.009.052.044.105.088.159.123.06.043.125.08.192.114.061.035.132.07.201.097.057.026.116.046.176.061.01.009.019.009.036.017.035.01.079.019.113.027-.026.475-.034.92.037 1.08.078.175.464-.36.85-.975-.051.606-.087 1.317 0 1.528.097.22.623-.466 1.08-1.22 6.227-1.44 11.908 2.861 12.504 8.939-.113-.95-1.282-1.475-1.817-1.344-.264.65-.712 1.484-1.431 2.002a5.636 5.636 0 00-.088-1.756 5.68 5.68 0 01-1.09 2.212c-.833.061-1.667-.342-2.106-.949-.036-.025-.044-.078-.07-.113-.026-.061-.053-.123-.072-.184a.733.733 0 01-.052-.184c-.009-.063-.009-.124-.009-.195v-.131c.01-.063.026-.124.044-.184.019-.061.036-.122.063-.185.034-.06.06-.123.104-.184.15-.422.15-.765-.123-.966a1.006 1.006 0 00-.167-.088c-.034-.008-.078-.025-.113-.035l-.071-.026a1.211 1.211 0 00-.184-.044.668.668 0 00-.184-.027 1.43 1.43 0 00-.193-.017c-.044 0-.088.009-.132.009a.685.685 0 00-.194.027 1.445 1.445 0 00-.368.096c-.061.026-.114.053-.176.08-.052.025-.105.06-.167.087-2.046 1.335-.825 4.46.57 5.365-.526.097-1.062.21-1.21.325l-.019.017c.378.228.774.422 1.186.59.562.183 1.159.349 1.422.42v.008c.728.15 1.472.203 2.213.159 3.89-.272 7.078-3.231 7.657-7.13l.052.228c.027.159.061.326.08.492v.008c.017.08.025.159.035.23v.034c.009.079.017.158.017.23.009.095.017.192.017.288v.142c0 .042.01.095.01.139 0 .053-.01.106-.01.158v.123c0 .061-.008.114-.008.176 0 .036 0 .071-.009.114 0 .062-.008.123-.008.194-.009.025-.009.052-.009.078l-.028.202c0 .027 0 .052-.007.08-.01.087-.027.167-.036.254v.017l-.052.247v.025l-.052.237c0 .01-.01.028-.01.035-.017.08-.037.16-.061.238v.026c-.027.088-.053.167-.071.246-.009.009-.009.017-.009.017l-.079.264c-.034.088-.06.167-.096.255-.036.088-.061.176-.097.255-.035.088-.07.166-.104.255h-.01c-.034.078-.071.166-.114.245a.435.435 0 01-.027.06c-.008.01-.008.02-.017.028a8.31 8.31 0 01-2.467 2.95c-.071.043-.14.097-.212.15-.017.017-.042.025-.06.042-.063.046-.128.09-.193.133l.025.053h.01l.369-.053h.008c.228-.035.456-.08.684-.123.063-.009.132-.027.195-.044l.123-.027c.06-.008.122-.025.184-.034.052-.018.105-.028.157-.044.879-.212 1.73-.501 2.547-.843a14.061 14.061 0 01-5.454 4.451 14.41 14.41 0 002.995-.518 14.029 14.029 0 008.297-6.63 14.014 14.014 0 01-2.361 5.647 13.822 13.822 0 002.344-1.95 13.917 13.917 0 003.698-7.463c.297 1.389.385 2.82.255 4.232 6.338-8.841.526-18.009-1.907-20.423-.008-.018-.017-.027-.017-.044-.008.009-.008.009-.008.017 0-.008 0-.008-.01-.017 0 .105-.009.21-.017.316-.025.197-.054.393-.088.588-.043.193-.096.387-.149.581a7.011 7.011 0 01-.212.561c-.08.182-.168.36-.262.536-.197.344-.423.67-.676.974-.132.158-.272.298-.414.44a5.725 5.725 0 01-.255.219l-.201.176c-.157.123-.321.237-.492.341-.167.108-.34.208-.518.299-.184.088-.369.167-.553.247a6.176 6.176 0 01-1.159.315c-.202.036-.403.053-.597.071-.14.01-.28.016-.421.017a6.56 6.56 0 01-.598-.035 4.44 4.44 0 01-.596-.088 4.425 4.425 0 01-.588-.149h-.01c.194-.018.387-.035.58-.07a6.364 6.364 0 001.16-.316c.192-.071.376-.16.552-.247.184-.088.351-.184.527-.289.167-.113.333-.228.492-.351.158-.124.307-.255.447-.396.149-.131.28-.28.413-.43.131-.157.255-.316.368-.473.018-.027.037-.063.054-.088.088-.142.175-.282.255-.422a6.057 6.057 0 00.623-1.67c.035-.2.07-.393.088-.587.017-.201.035-.404.035-.597 0-.141-.01-.281-.018-.422a9.514 9.514 0 00-.071-.588 6.38 6.38 0 00-.13-.588c-.063-.184-.124-.378-.194-.562a6.282 6.282 0 00-.245-.544c-.098-.176-.195-.351-.3-.518a9.682 9.682 0 00-.35-.482c-.133-.15-.264-.3-.405-.45a5.501 5.501 0 00-.228-.219 16.28 16.28 0 00-1.22-.86 1.636 1.636 0 00-.176-.088 3.422 3.422 0 00-.835-.368V.567z"/>
</svg>