<svg xmlns="http://www.w3.org/2000/svg" viewBox="0 0 15 19">
  <path d="M13.689 8.624l-.147-.22c0-1.752-.81-2.41-1.7-2.922.297-.075.592-.147.667-.512.516-.145.591-.365.663-.584.148-.075.518-.291.518-.731.221-.146.37-.366.297-.656.221-.295.294-.515.221-.731.295-.365.148-.585.073-.805.222-.44 0-.877-.591-.806-.22-.365-.812-.29-.887-.29-.072-.147-.222-.22-.591-.147-.37-.219-.664-.219-.958-.073-.37-.292-.592-.071-.815 0C9.995.001 9.922.22 9.7.292c-.444-.07-.59.15-.814.365h-.219C8 1.023 7.631 1.903 7.484 2.267 7.336 1.829 7.039 1.024 6.3.658h-.219C5.86.441 5.711.221 5.267.292c-.222-.07-.294-.29-.739-.145C4.38.076 4.234 0 4.011 0c-.074 0-.146.075-.297.146-.294-.146-.588-.146-.81.073-.37-.073-.518.072-.592.147-.076 0-.664-.075-.887.29-.667-.07-.885.366-.667.806-.147.219-.218.365.076.805-.148.145-.076.436.221.656-.073.29 0 .512.296.73-.072.366.37.585.443.732.073.219.148.44.665.584.074.365.37.437.667.512-.962.511-1.7 1.242-1.7 2.923l-.148.219C.242 9.28-.72 11.327.758 13.008c.076.512.223.877.37 1.317.222 1.678 1.628 2.483 1.998 2.557a6.079 6.079 0 001.919 1.096C5.784 18.71 6.598 19 7.409 19c.814 0 1.628-.29 2.367-1.022a6.078 6.078 0 001.919-1.096c.37-.074 1.775-.88 1.995-2.557.149-.44.296-.805.444-1.317 1.625-1.681.663-3.728-.445-4.384zm-.958-.294c-.075.73-3.622-2.408-3.03-2.483 1.699-.29 3.103.656 3.03 2.483zM8.814 1.097c0 .146.071.22.071.291.223-.216.37-.436.592-.656 0 .146-.071.22.076.365.147-.219.294-.365.59-.511-.15.22 0 .292.073.365.223-.145.37-.294.74-.438-.073.144-.223.219-.073.365.22-.146.37-.22.886-.365-.075.144-.297.219-.222.365.222-.072.517-.146.814-.22-.15.148-.298.22-.15.294.297-.075.591-.22.96-.075l-.22.22h.888c-.15.22-.298.366-.37.656h.37c-.15.44-.445.515-.52.66.075.071.222.071.445 0-.148.291-.37.437-.591.656.073.075.146.075.369 0-.223.22-.442.366-.665.586.072.074.223.074.37.074-.222.217-.592.366-.886.511.072.146.219.071.294.071-.221.15-.59.294-.886.365.072.075.147.15.295.15-.37.216-.886.07-1.034.216 0 .074.148.149.223.22-.592 0-2.145 0-2.44-1.167.592-.66 1.626-1.39 3.473-2.342-1.403.515-2.734 1.097-3.77 1.976-1.18-.585-.37-2.046.298-2.632zm-1.33 4.238c.886 0 1.995.658 1.995 1.317 0 .582-.812 1.022-1.995 1.022-1.184 0-1.995-.585-1.995-1.096 0-.512.962-1.243 1.995-1.243zm-4.509-.438c.15 0 .222-.072.298-.146-.37-.146-.74-.22-.961-.44.147 0 .221 0 .369-.07a5.765 5.765 0 01-.887-.512c.148 0 .296 0 .37-.074-.222-.146-.444-.366-.667-.512h.37c-.219-.293-.441-.438-.588-.73a.48.48 0 00.44 0c-.071-.145-.44-.22-.59-.585h.369c-.072-.29-.22-.512-.295-.656h.887L1.867.877c.37-.07.739 0 .961.075.148-.075 0-.22-.147-.295.294.075.591.15.814.22.147-.145-.075-.219-.222-.365.516.074.663.22.886.365.148-.145 0-.219-.076-.365.37.146.52.294.74.44.075-.075.15-.146.075-.366.147.146.37.291.517.511.146-.074.074-.219.074-.365.223.22.442.44.592.656.072 0 .072-.145.072-.29.592.584 1.478 2.045.222 2.631-1.033-.88-2.364-1.536-3.77-1.976 1.848.951 2.884 1.682 3.476 2.342-.297 1.167-1.847 1.241-2.439 1.167.147-.071.222-.146.222-.22-.075-.071-.52.001-.889-.145zm2.07.875c.592.075-2.956 3.218-3.028 2.487-.075-1.756 1.328-2.777 3.028-2.487zm-3.766 6.942c-.89-.73-1.184-2.703.44-3.653.962-.291.37 3.948-.44 3.653zm3.396 3.654c-.516.294-1.7.149-2.51-1.022-.592-1.021-.518-2.046-.076-2.338.592-.365 1.553.146 2.217.952.592.656.886 1.972.37 2.408zm-.96-4.455c-.887-.586-1.034-1.902-.37-2.998.74-1.021 1.997-1.461 2.883-.876.886.585 1.033 1.901.37 2.998-.667 1.096-1.994 1.461-2.883.876zm3.769 6.502c-1.109.074-2.142-.876-2.142-1.167 0-.44 1.328-.806 2.217-.806.886-.074 2.066.291 2.066.731 0 .291-1.108 1.242-2.141 1.242zM9.7 13.74c0 1.096-.96 1.972-2.14 1.972-1.185 0-2.218-.877-2.218-1.973s.958-1.972 2.142-1.972c1.256 0 2.216.876 2.216 1.973zm-1.33-2.778c-.738-1.022-.517-2.411.37-2.997.885-.582 2.217-.217 2.883.88.664 1.095.517 2.408-.37 2.993-.889.512-2.215.146-2.883-.876zm4.434 4.384c-.962 1.316-2.217 1.316-2.659.95-.52-.438-.15-1.9.588-2.702.74-.88 1.629-1.461 2.145-1.025.37.511.592 1.901-.074 2.777zm.666-2.703c-.814.365-1.478-3.873-.445-3.654 1.626.877 1.33 2.923.445 3.654z"/>
</svg>