<svg xmlns="http://www.w3.org/2000/svg" fill="none" viewBox="0 0 32 29">
  <path fill="#000" d="M16 11.382a2.858 2.858 0 00-2.854 2.854A2.858 2.858 0 0016 17.09a2.858 2.858 0 002.854-2.854A2.858 2.858 0 0016 11.382zm-7.99 8.526l-.63-.156C2.692 18.564 0 16.554 0 14.232c0-2.324 2.693-4.334 7.38-5.522l.63-.156.177.625a31.42 31.42 0 001.818 4.771l.135.281-.135.286a31.044 31.044 0 00-1.818 4.771l-.177.62zm-.921-9.74c-3.563 1-5.75 2.536-5.75 4.063 0 1.527 2.188 3.057 5.75 4.063a33.277 33.277 0 011.578-4.063 32.966 32.966 0 01-1.578-4.063zm16.901 9.74l-.177-.625a31.16 31.16 0 00-1.818-4.766l-.135-.286.135-.286a31.048 31.048 0 001.818-4.77l.177-.62.63.155C29.308 9.898 32 11.908 32 14.231s-2.693 4.333-7.38 5.521l-.63.156zm-.657-5.677a32.523 32.523 0 011.578 4.063c3.568-1.005 5.75-2.536 5.75-4.063 0-1.527-2.188-3.057-5.75-4.063a33.675 33.675 0 01-1.578 4.063zM7.078 10.163l-.177-.625C5.583 4.892 5.984 1.56 8 .398c1.979-1.142 5.151.207 8.479 3.624l.453.464-.453.464a31.465 31.465 0 00-3.229 3.958l-.182.255-.313.026a31.61 31.61 0 00-5.047.813l-.63.161zm2.531-8.838c-.359 0-.677.073-.943.23-1.323.765-1.557 3.421-.646 7.004a33.345 33.345 0 014.313-.672 32.835 32.835 0 012.734-3.39C12.989 2.47 11.02 1.323 9.609 1.323v.001zM22.396 28.47c-.005 0-.005 0 0 0-1.901 0-4.344-1.427-6.875-4.03l-.453-.465.453-.464a31.477 31.477 0 003.229-3.958l.177-.255.313-.03a30.675 30.675 0 005.052-.814l.63-.156.177.625c1.318 4.646.917 7.974-1.099 9.135a3.095 3.095 0 01-1.604.411v.001zm-5.464-4.505c2.078 2.026 4.047 3.172 5.458 3.172h.005c.354 0 .672-.078.938-.229 1.323-.766 1.563-3.422.646-7.005a32.649 32.649 0 01-4.313.667 32.896 32.896 0 01-2.734 3.396zm7.99-13.802l-.63-.16a31.99 31.99 0 00-5.052-.814l-.313-.026-.177-.255a31.465 31.465 0 00-3.229-3.958l-.453-.464.453-.464C18.849.605 22.021-.744 24 .397c2.016 1.161 2.417 4.495 1.099 9.141l-.177.625zm-5.255-2.276c1.45.13 2.892.354 4.313.672.917-3.583.677-6.24-.646-7.005-1.318-.76-3.797.406-6.401 2.943a34.078 34.078 0 012.734 3.391zM9.609 28.47c-.563.01-1.12-.13-1.609-.41-2.016-1.162-2.417-4.49-1.099-9.136l.177-.625.63.156c1.542.391 3.24.661 5.047.813l.313.031.177.255a31.477 31.477 0 003.229 3.958l.453.464-.453.464c-2.526 2.604-4.969 4.031-6.865 4.031zm-1.588-8.567c-.917 3.583-.677 6.24.646 7.005 1.318.75 3.792-.406 6.401-2.943a32.896 32.896 0 01-2.734-3.396 32.529 32.529 0 01-4.313-.667v.001zm7.979.838c-1.099 0-2.224-.047-3.354-.14l-.313-.027-.182-.26a39.986 39.986 0 01-1.797-2.828 39.937 39.937 0 01-1.557-2.969l-.135-.286.135-.286a40.498 40.498 0 013.354-5.797l.182-.26.313-.026a39.962 39.962 0 016.708 0l.313.026.182.26a40.072 40.072 0 013.354 5.797l.135.286-.135.286a39.624 39.624 0 01-3.354 5.797l-.182.26-.313.026c-1.116.094-2.235.14-3.354.141zm-2.927-1.448c1.969.151 3.885.151 5.859 0a39.034 39.034 0 002.927-5.063 37.532 37.532 0 00-2.932-5.063 37.881 37.881 0 00-5.854 0 37.302 37.302 0 00-2.932 5.063 38.63 38.63 0 002.932 5.063z"/>
</svg>