<svg xmlns="http://www.w3.org/2000/svg" viewBox="0 0 298.59 298.6">
  <style>
    .st0{fill:#f7f1f0}.st1{fill:#e2cf47}.st2{fill:#6fd1c6}
  </style>
  <path transform="rotate(-90 135.165 149.3)" class="st0" d="M106.3 135.46h57.73v27.68H106.3z" id="barra-izq-1"/>
  <path transform="rotate(-90 107.615 149.3)" class="st1" d="M31.05 135.59h153.14v27.42H31.05z" id="barra-izq-2"/>
  <path transform="rotate(-90 80.064 149.3)" class="st2" d="M22.34 135.46H137.8v27.68H22.34z" id="barra-izq-3"/>
  <path transform="rotate(-90 52.382 149.3)" class="st0" d="M-38.5 135.46h181.76v27.68H-38.5z" id="barra-izq-4"/>
  <path transform="rotate(-90 24.7 149.3)" class="st1" d="M-90.76 135.46h230.91v27.68H-90.76z" id="barra-izq-5"/>
  <path transform="rotate(-90 162.847 149.3)" class="st1" d="M133.98 135.46h57.73v27.68h-57.73z" id="barra-der-1"/>
  <path transform="rotate(90 190.53 149.3)" class="st2" d="M113.96 135.46H267.1v27.68H113.96z" id="barra-der-2"/>
  <path transform="rotate(90 218.211 149.3)" class="st0" d="M160.48 135.46h115.46v27.68H160.48z" id="barra-der-3"/>
  <path transform="rotate(90 245.893 149.3)" class="st1" d="M155.01 135.46h181.76v27.68H155.01z" id="barra-der-4"/>
  <path transform="rotate(90 273.575 149.3)" class="st2" d="M158.12 135.46h230.91v27.68H158.12z" id="barra-der-5"/>
</svg>