<svg xmlns="http://www.w3.org/2000/svg" fill="none" viewBox="0 0 469 69">
  <path fill="#F5FFB7" d="M47.576 45.768v.576c.192 3.136-.256 5.984-1.344 8.544-1.024 2.432-2.592 4.672-4.704 6.72-1.792 1.664-3.904 3.04-6.336 4.128-3.904 1.664-8.224 2.336-12.96 2.016-.32 0-.8-.064-1.44-.192-.32 0-.8-.064-1.44-.192h-.384c-.128-.064-.256-.096-.384-.096-.256-.128-.48-.192-.672-.192-.192 0-.448-.032-.768-.096-.256-.128-.48-.224-.672-.288-.256-.064-.704-.224-1.344-.48-.384-.064-.8-.224-1.248-.48-.128-.064-.352-.16-.672-.288l-.576-.288-.576-.288-.576-.288c-2.624-1.536-4.864-3.456-6.72-5.76-1.344-1.728-2.336-3.328-2.976-4.8-.32-.64-.544-1.056-.672-1.248l-.192-.48 1.536-.576c.064.064.128.192.192.384s.256.608.576 1.248c.64 1.408 1.568 2.88 2.784 4.416 1.664 2.112 3.744 3.904 6.24 5.376l.576.288.576.288 1.152.576c.256.128.64.256 1.152.384.448.192.864.352 1.248.48.128 0 .32.032.576.096.32.064.576.128.768.192.064.064.16.128.288.192h.384c.128.064.352.096.672.096.512.128.96.192 1.344.192.64.128 1.12.192 1.44.192 4.352.32 8.384-.288 12.096-1.824 2.24-1.024 4.224-2.304 5.952-3.84 1.92-1.92 3.328-4 4.224-6.24 1.024-2.368 1.44-4.96 1.248-7.776v-.48c0-.064-.032-.128-.096-.192v-.288l-.192-1.056c0-.256-.064-.576-.192-.96l-.384-1.056c-.192-.512-.32-.832-.384-.96-.128-.32-.288-.64-.48-.96l-.48-.96c-.064-.064-.16-.224-.288-.48l-.384-.384c-1.408-1.856-3.456-3.552-6.144-5.088-1.792-1.024-4-1.984-6.624-2.88-1.728-.576-2.848-.928-3.36-1.056l-1.632-.48-1.632-.48c-2.688-.768-4.608-1.408-5.76-1.92-1.984-.832-3.424-1.792-4.32-2.88l-.192-.192-.192-.192-.096-.192c-.064-.128-.128-.192-.192-.192l-.288-.48-.192-.192c0-.128-.032-.224-.096-.288 0-.064-.064-.224-.192-.48-.064-.064-.096-.224-.096-.48-.128-.256-.192-.448-.192-.576l-.096-.48c-.064-.128-.096-.32-.096-.576v-1.728c0-.128.032-.32.096-.576.064-.256.096-.448.096-.576l.192-.48.192-.48c.448-1.28 1.248-2.432 2.4-3.456.96-.768 2.176-1.472 3.648-2.112.512-.128.864-.224 1.056-.28801h.48c.256-.06399.448-.12799.576-.19199.128-.064.32-.096.576-.096.128-.064.32-.096.576-.096.192-.064.544-.096 1.056-.096.256-.064.608-.096 1.056-.096h1.056c.96 0 1.632.032 2.016.096.128 0 .288.032.48.096h.48c.128.064.288.128.48.192h.48c.192 0 .32.032.384.096.064 0 .128.032.192.09599h.288c.384.12801.64.19201.768.19201 2.048.704 3.744 1.632 5.088 2.784.768.576 1.6 1.408 2.496 2.496l.48.864-1.344.576H36.728v-.192c-.064 0-.096-.032-.096-.096s-.032-.128-.096-.192c-.768-.896-1.472-1.632-2.112-2.208-1.536-1.152-3.072-1.952-4.608-2.4-.128-.064-.384-.16-.768-.288-.128 0-.256-.032-.384-.096h-.384c-.384-.128-.672-.192-.864-.192-.128-.064-.416-.096-.864-.096-.384-.064-.992-.096-1.824-.096-.128-.064-.32-.064-.576 0h-1.44c-.128.064-.288.128-.48.192h-.96c-.128.064-.288.096-.48.096-.256.064-.576.16-.96.288-.256.064-.576.16-.96.288-1.216.384-2.272.96-3.168 1.728-.96.832-1.6 1.76-1.92 2.784l-.192.384-.096.384c-.064.064-.096.192-.096.384s-.032.352-.096.48v.96c.064.128.096.32.096.576V20.136c.064.064.096.128.096.192s.032.16.096.288V21l.096.096.192.384c0 .064.032.128.096.192l.096.192c0 .064.064.16.192.288.064 0 .096.032.096.096s.032.128.096.192l.192.192.096.192c.96.96 2.24 1.76 3.84 2.4 1.216.576 3.072 1.216 5.568 1.92l1.536.384 1.728.576c.96.256 2.08.608 3.36 1.056 2.368.768 4.704 1.76 7.008 2.976 1.536.896 2.688 1.664 3.456 2.304l.864.672c.128.192.384.48.768.864.32.192.576.448.768.768l.768.96.384.48c.064.064.16.224.288.48l.288.576c.128.192.224.352.288.48.128.192.32.544.576 1.056 0 .128.064.32.192.576.128.256.192.448.192.576L47 42.984l.288 1.152.192 1.152c0 .256.032.416.096.48zM12.92 10.344c-3.136 2.624-4.352 5.984-3.648 10.08.32 2.176 1.12 3.936 2.4 5.28 1.216 1.216 2.944 2.336 5.184 3.36 1.664.768 3.712 1.472 6.144 2.112 1.408.384 2.496.672 3.264.864.32.128.832.32 1.536.576.704.192 1.248.352 1.632.48 2.432.896 4.512 1.792 6.24 2.688 2.432 1.408 4.224 2.88 5.376 4.416l.288.384.192.384.48.672c.064.064.128.192.192.384s.128.352.192.48c0 .128.032.288.096.48.064.128.128.224.192.288l.288.864c.128.384.192.672.192.864l.192.864v.768c.192 2.432-.128 4.64-.96 6.624-.832 2.048-2.08 3.808-3.744 5.28-1.6 1.472-3.296 2.592-5.088 3.36-3.2 1.408-6.848 1.984-10.944 1.728-.256 0-.704-.064-1.344-.192-.128-.064-.352-.096-.672-.096-.256-.064-.448-.096-.576-.096-.256 0-.448-.032-.576-.096-.064-.064-.16-.096-.288-.096-.128 0-.224-.032-.288-.096l-1.152-.288c-.64-.192-1.376-.448-2.208-.768-.256-.064-.576-.224-.96-.48-.064-.064-.16-.096-.288-.096-.128 0-.224-.032-.288-.096 0-.064-.064-.128-.192-.192l-.192-.096c-2.176-1.28-4.032-2.848-5.568-4.704-.896-1.216-1.728-2.56-2.496-4.032-.256-.448-.448-.832-.576-1.152l-.096-.384 1.44-.576c.128.32.352.8.672 1.44.96 1.664 1.728 2.88 2.304 3.648 1.472 1.856 3.168 3.296 5.088 4.32.064.064.192.16.384.288.064 0 .128.032.192.096.128 0 .224.032.288.096l.576.288c.192.064.32.128.384.192l.576.288c.256.064.48.128.672.192l.768.192c.192.064.544.16 1.056.288.064 0 .16.032.288.096h.288c.064 0 .128.032.192.096.128.064.224.096.288.096.128 0 .32.032.576.096h.672c.512.128.896.192 1.152.192 3.84.256 7.232-.256 10.176-1.536 1.664-.768 3.232-1.792 4.704-3.072 1.472-1.472 2.56-3.04 3.264-4.704.768-1.792 1.088-3.744.96-5.856l-.096-.384v-.384l-.192-.768c0-.064-.032-.192-.096-.384v-.384l-.288-.672c0-.064-.096-.288-.288-.672-.064-.192-.16-.416-.288-.672l-.384-.672c-.064 0-.096-.064-.096-.192 0-.064-.032-.128-.096-.192l-.288-.288c-1.152-1.472-2.752-2.784-4.8-3.936-1.088-.64-3.072-1.504-5.952-2.592-.704-.256-1.76-.576-3.168-.96-.832-.32-1.92-.64-3.264-.96-2.496-.704-4.608-1.44-6.336-2.208-2.368-1.024-4.256-2.272-5.664-3.744-1.6-1.6-2.56-3.616-2.88-6.048-.192-1.024-.224-2.144-.096-3.36 0-.064.032-.288.096-.672.064-.384.128-.672.192-.864 0-.128.032-.288.096-.48s.096-.32.096-.384c.064-.128.16-.384.288-.768.64-1.856 1.824-3.552 3.552-5.088 1.216-1.088 2.912-2.048 5.088-2.88.192 0 .416-.064.672-.192.256-.128.48-.192.672-.192.128 0 .352-.032.672-.096.32-.064.544-.128.672-.192h.288c.192-.064.32-.09601.384-.09601.128-.06399.352-.09599.672-.09599.128-.064.32-.096.576-.096.32 0 .544-.032.672-.096 3.392-.256 6.528.064 9.408.96 2.432.768 4.576 1.92 6.432 3.456 1.28 1.088 2.368 2.24 3.264 3.456.064.064.128.16.192.288.064.128.128.224.192.288.128.256.224.416.288.48l.192.48-1.536.576c-.064-.064-.128-.16-.192-.288l-.192-.384-.288-.576c-.896-1.152-1.888-2.176-2.976-3.072-1.6-1.28-3.584-2.336-5.952-3.16801-2.752-.83199-5.632-1.11999-8.64-.86399-.128 0-.352.032-.672.096-.256.064-.448.096-.576.096H20.6c-.064 0-.192.032-.384.096-.128.064-.224.09599-.288.09599-.128.06401-.352.12801-.672.19201h-.576c-.256.128-.64.256-1.152.384-1.792.64-3.328 1.504-4.608 2.592zM3.512 21.288c-.064-.32-.128-.704-.192-1.152V18.12c0-.512.032-.896.096-1.152 0-.064.032-.352.096-.864.064-.576.128-.992.192-1.248.128-.512.224-.864.288-1.056 0-.128.032-.288.096-.48l.288-.576c.96-2.688 2.528-4.96 4.704-6.816 1.984-1.6 4.16-2.816 6.528-3.64801.192-.06399.448-.12799.768-.19199.384-.128.672-.22401.864-.288.448-.128.992-.256 1.632-.38401h.288c.192-.06399.352-.09599.48-.09599.064-.064.192-.096.384-.096s.32-.032.384-.096h.672c.384-.064.672-.096.864-.096.32-.064003.8-.096005 1.44-.096005h.672c.32-.063999.576-.095999.768-.095999.32 0 .768.032 1.344.095999.64 0 1.12.032002 1.44.096005.192 0 .448.032.768.096s.544.096.672.096c.256.064.704.16 1.344.288.256 0 .448.032.576.096.064 0 .16.032.288.096.192 0 .32.032.384.096.128 0 .32.032.576.09599.32.06401.544.12801.672.19201 2.816.896 5.408 2.304 7.776 4.22399C42.392 7.656 43.768 9.096 44.792 10.632c.256.384.416.672.48.864.064.128.16.256.288.384 0 .128.064.256.192.384l.288.672-1.536.576-.288-.576c-.064-.128-.096-.224-.096-.288-.128-.128-.192-.224-.192-.288l-.288-.288c-.064-.192-.128-.352-.192-.48-.96-1.408-2.24-2.752-3.84-4.032-1.984-1.664-4.384-2.944-7.2-3.84-.256-.128-.64-.256-1.152-.384-.064 0-.288-.064-.672-.192-.256 0-.448-.032-.576-.096-.128-.064-.352-.096-.672-.096-.256 0-.448-.032-.576-.096-.128-.064-.352-.09601-.672-.09601-.256 0-.448-.032-.576-.09599-.256-.064-.704-.096-1.344-.096-.576 0-1.024-.032-1.344-.096-.192 0-.448.032-.768.096h-.576c-.64 0-1.12.032-1.44.096-.128 0-.352.032-.672.09599H20.6c-.128.06401-.352.09601-.672.09601-.064 0-.192.032-.384.096-.192 0-.32.032-.384.096-.64.12799-1.152.224-1.536.288-.128.064-.352.16-.672.28799-.32.06401-.576.12801-.768.19201-2.112.64-4.096 1.76-5.952 3.35999C8.184 8.904 6.744 10.952 5.912 13.32c0 .128-.032.288-.096.48s-.128.352-.192.48c-.128.384-.224.704-.288.96 0 .064-.096.704-.288 1.92-.064.192-.096.512-.096.96v1.92c.064.448.128.768.192.96l.096 1.056c.064.064.128.224.192.48s.096.416.096.48c0 .128.032.32.096.576.064.192.128.352.192.48l.48.96c0 .064.064.224.192.48l.288.48.576.864.576.864.384.48.384.384c1.664 1.728 3.808 3.168 6.432 4.32 1.536.64 3.776 1.408 6.72 2.304l1.632.48 1.536.384c.384.128.928.32 1.632.576.768.192 1.248.32 1.44.384 2.304.768 4.16 1.568 5.568 2.4 1.792.96 3.136 2.048 4.032 3.264l.192.288c.064.064.096.128.096.192.064.128.192.288.384.48v.288l.192.192c.128.256.192.448.192.576l.192.48c.064.128.096.32.096.576l.096.576c.064.064.096.16.096.288v.384c.128 1.728-.096 3.296-.672 4.704-.704 1.472-1.6 2.72-2.688 3.744-1.088 1.088-2.432 1.952-4.032 2.592-1.344.64-2.816 1.056-4.416 1.248-1.024.192-2.528.224-4.512.096h-.576c-.192-.064-.352-.096-.48-.096-.128-.064-.32-.096-.576-.096-.192 0-.352-.032-.48-.096-.192 0-.352-.032-.48-.096h-.288c-.064-.064-.128-.096-.192-.096-.384-.128-.704-.192-.96-.192-.384-.128-.672-.256-.864-.384l-.864-.288c-.064 0-.192-.064-.384-.192-.128-.128-.256-.192-.384-.192s-.256-.064-.384-.192c-.128 0-.256-.064-.384-.192-1.664-.896-3.104-2.144-4.32-3.744-.704-.832-1.376-1.888-2.016-3.168l-.48-.96-.096-.288 1.536-.672c0 .064.032.192.096.384 0 .064.032.128.096.192l.288.576c.512 1.088 1.12 2.08 1.824 2.976 1.088 1.344 2.4 2.432 3.936 3.264.128.128.224.192.288.192l.384.192c.256.128.48.224.672.288l.768.288c.064.064.192.128.384.192s.32.096.384.096l.864.288c.192 0 .352.032.48.096.192 0 .32.032.384.096.128 0 .288.032.48.096h.48c.128 0 .288.032.48.096H23c1.6.128 2.976.096 4.128-.096 1.6-.192 2.976-.544 4.128-1.056 2.88-1.28 4.8-3.136 5.76-5.568.512-1.152.704-2.464.576-3.936v-.48c-.064-.128-.096-.288-.096-.48 0-.064-.032-.128-.096-.192v-.288c-.064-.064-.096-.128-.096-.192-.064-.128-.096-.224-.096-.288l-.192-.384v-.192c-.064-.064-.096-.128-.096-.192-.128-.128-.224-.256-.288-.384-.064-.064-.096-.128-.096-.192l-.192-.192c-.64-.896-1.792-1.824-3.456-2.784-1.472-.832-3.264-1.6-5.376-2.304-1.28-.384-2.272-.704-2.976-.96l-1.44-.384-1.632-.48c-2.432-.64-4.736-1.44-6.912-2.4-.256-.064-.576-.192-.96-.384s-.672-.32-.864-.384c-.128-.064-.736-.416-1.824-1.056-.128-.128-.416-.32-.864-.576-.384-.32-.672-.576-.864-.768-.064-.064-.192-.16-.384-.288-.192-.192-.352-.32-.48-.384l-.864-.864-.384-.384-.384-.48c-.064-.128-.192-.288-.384-.48-.128-.256-.224-.416-.288-.48-.32-.384-.544-.736-.672-1.056l-.288-.48-.288-.576c-.064-.256-.224-.64-.48-1.152-.064-.192-.16-.544-.288-1.056 0-.064-.032-.16-.096-.288-.064-.192-.128-.352-.192-.48v-.384c-.064-.128-.096-.288-.096-.48 0-.256-.032-.448-.096-.576zm75.3953 16.224L51.4513 1.32h2.112l27.072 35.616V68.52h-1.728V37.512zm4.416-1.536l-26.4-34.656h2.112l26.016 34.08v33.12h-1.728V35.976zm5.184-3.264L112.315 1.32h2.208L89.3713 34.344V68.52h-1.632V34.536L62.3953 1.32h2.208l18.432 24.192L101.371 1.32h2.112L84.0913 26.952l1.728 2.208L106.843 1.32h2.208L86.8753 30.6l1.632 2.112zM128.949 7.944c-.512-.32-1.088-.416-1.728-.28801-.64.12801-1.216.41601-1.728.864-.448.38401-.704.89601-.768 1.53601v3.552c0 3.584-.032 6.24-.096 7.968v15.072c-.128 13.696-.192 24.16-.192 31.392h-1.728c.064-3.072.096-8.224.096-15.456.064-7.296.096-12.608.096-15.936 0-6.528.032-11.552.096-15.072v-8.544c0-1.152.032-1.984.096-2.496 0-.512.032-.896.096-1.152v-.576c.064-.064.096-.224.096-.48.192-.832.608-1.472 1.248-1.92.64-.64 1.344-.99201 2.112-1.056.768-.064 1.536.032 2.304.288.064 0 .128.032.192.096.128.064.224.128.288.192l.384.38399.768.864c.384.38401.672.70401.864.96001.256.384.512.704.768.96.512.768 1.024 1.472 1.536 2.112.32.448 2.112 2.912 5.376 7.392.512.704 2.112 2.912 4.8 6.624 2.752 3.648 4.832 6.464 6.24 8.448 2.496 3.328 6.176 8.32 11.04 14.976.512.64 1.376 1.792 2.592 3.456 1.216 1.664 2.144 2.944 2.784 3.84 1.024 1.408 1.76 2.432 2.208 3.072l.576.768.288.384c.128.128.256.224.384.288.576.32 1.152.448 1.728.384.512 0 1.056-.224 1.632-.672.448-.384.768-.896.96-1.536.064-.192.096-.48.096-.864V.935995h1.632V58.248c-.128 1.216-.256 1.952-.384 2.208-.192.704-.608 1.312-1.248 1.824-.576.576-1.312.864-2.208.864-.832.128-1.6 0-2.304-.384l-.192-.192c-.064-.064-.128-.096-.192-.096l-.096-.096-.288-.384-.768-.864c-.32-.32-.864-.992-1.632-2.016-.64-.896-1.152-1.6-1.536-2.112-.576-.832-1.472-2.048-2.688-3.648-1.216-1.6-2.112-2.816-2.688-3.648-.512-.704-2.144-2.88-4.896-6.528-2.688-3.712-4.736-6.56-6.144-8.544l-5.76-7.68c-2.432-3.392-4.192-5.824-5.28-7.296-2.816-3.84-4.608-6.272-5.376-7.296l-1.152-1.44c-.448-.704-.8-1.248-1.056-1.632-.64-.768-1.056-1.216-1.248-1.344zm-2.976-5.18401c-.96.19201-1.888.57601-2.784 1.15201-.768.704-1.344 1.408-1.728 2.112-.256.512-.416.896-.48 1.15199l-.288.76801c0 .128-.032.224-.096.288v.384c0 .064-.096 1.216-.288 3.456v9.408c0 1.856-.032 4.48-.096 7.872v7.296c-.064 6.848-.096 17.312-.096 31.392h-1.728V52.872c.064-7.296.096-12.704.096-16.224v-7.296c.064-3.392.096-6.016.096-7.872v-4.992c.064-2.24.096-3.936.096-5.088V9.288l.096-.96c0-.256.064-.576.192-.96l.096-.384c0-.064.032-.128.096-.192V6.6l.384-.768c.192-.512.416-.928.672-1.248.576-.768 1.312-1.504 2.208-2.208.128 0 .256-.064.384-.192s.256-.192.384-.192c.064-.064.288-.192.672-.384l.864-.288c.384-.128.64-.192.768-.192 1.088-.256002 2.208-.288002 3.36-.096.128 0 .256.032.384.096s.256.096.384.096c.384.128.608.19199.672.19199l.576.28801.768.384.288.19199c.064.06401.128.12801.192.19201.064.064.128.096.192.096.384.256.64.448.768.576l.672.768.672.864c.192.32.576.896 1.152 1.728.64.832 1.152 1.472 1.536 1.92 3.392 4.608 5.248 7.136 5.568 7.584 4.864 6.656 8.544 11.68 11.04 15.072 1.344 1.856 3.904 5.344 7.68 10.464 3.84 5.12 6.72 9.024 8.64 11.712V.935995h1.728V54.696c0 .32-.032.544-.096.672-.128.576-.448.864-.96.864-.32 0-.544-.064-.672-.192-.064 0-.128-.032-.192-.096l-.096-.096-.192-.288c-.064-.128-.192-.32-.384-.576-.192-.32-.352-.544-.48-.672-1.152-1.6-2.944-4-5.376-7.2-1.28-1.792-3.168-4.352-5.664-7.68-2.432-3.392-4.192-5.856-5.28-7.392l-5.76-7.68c-2.432-3.392-4.192-5.824-5.28-7.296-1.28-1.728-3.136-4.256-5.568-7.584l-1.152-1.44c-.448-.704-.8-1.216-1.056-1.536l-.576-.768-.576-.672-.576-.576-.288-.192-.288-.19201-.576-.48-.576-.28799-.192-.09601c-.128-.064-.256-.12799-.384-.19199-.256-.128-.48-.192-.672-.192-.832-.256-1.792-.288-2.88-.09601zM180.501 57.672c0 .896-.032 1.568-.096 2.016v.576c0 .064-.032.128-.096.192v.192c-.128.384-.192.672-.192.864l-.288.768-.192.384c0 .064-.064.16-.192.288-.064.192-.16.416-.288.672l-.288.288c-.064.128-.128.224-.192.288-.64.896-1.408 1.6-2.304 2.112-.96.576-2.016.96-3.168 1.152-.32.064-.864.096-1.632.096h-.864c-.064-.064-.192-.096-.384-.096-.192-.064-.32-.096-.384-.096-.064-.064-.192-.096-.384-.096-.128 0-.224-.032-.288-.096l-.672-.192-.096-.096c-.128 0-.192-.032-.192-.096l-.384-.192-.672-.288c-.064-.064-.192-.16-.384-.288l-.288-.288-.384-.288-.384-.384c-.192-.192-.448-.48-.768-.864-.256-.448-.448-.736-.576-.864-.192-.32-.608-.896-1.248-1.728-.576-.832-1.056-1.472-1.44-1.92-1.792-2.368-3.616-4.864-5.472-7.488-1.088-1.408-4.768-6.4-11.04-14.976-1.792-2.432-4.512-6.112-8.16-11.04-3.584-4.928-6.272-8.608-8.064-11.04 0 2.752-.032 6.56-.096 11.424v10.08c-.064 6.848-.096 17.312-.096 31.392h-1.728V52.872c.064-7.296.096-12.704.096-16.224.064-3.136.096-8.16.096-15.072 0-3.072.032-5.408.096-7.008v-1.44c0-.576.32-.864.96-.864.128-.064.352-.032.672.096l.48.48c.128.128.288.352.48.672.192.256.32.448.384.576.448.576 1.248 1.696 2.4 3.36 1.216 1.6 2.176 2.848 2.88 3.744 4.864 6.656 8.544 11.68 11.04 15.072l10.944 14.976 5.472 7.488c.64.832 1.376 1.824 2.208 2.976.064.128.16.288.288.48.192.192.352.384.48.576l.384.384c.064.064.16.192.288.384l.288.192.288.288c.192.128.32.224.384.288l.48.384.288.192.096.096h.192l.576.384c.064 0 .16.032.288.096.128.064.224.096.288.096.384.128.608.192.672.192.128 0 .256.032.384.096H172.821c1.024-.192 1.952-.544 2.784-1.056.832-.576 1.472-1.248 1.92-2.016.128-.128.192-.224.192-.288l.096-.288.288-.576v-.096l.096-.192.096-.384.192-.672c.192-.64.288-1.76.288-3.36V.935995h1.728V57.672zm3.794-54.336V1.704h42.816v1.632h-42.816zm0 4.416V6.024h42.816v1.728h-42.816zm16.512 4.416h-16.512V10.44h42.816v1.728h-15.84v56.736h-1.728V12.168h-2.592v56.736h-1.728V12.168h-2.688v56.736h-1.728V12.168zm83.798 21.696h-38.784 38.784zm7.488 34.176V1.512h1.632V68.04h-1.632zm-2.688 0h-1.728V1.512h1.728V68.04zm-42.24-39.36h36.096V1.512h1.728V68.04h-1.728V39.144h-36.096V68.04h-1.728V1.512h1.728V28.68zm36.096 4.416v-2.688h-36.096v2.688h36.096zm-36.096 1.632v2.688h36.096v-2.688h-36.096zm-8.736 33.312h-1.728V1.512h1.728V68.04zm4.32 0h-1.632V1.512h1.632V68.04zm80.099-66.336h19.2v1.728H311.232c-.96 0-1.664.032-2.112.096-.576.064-1.152.224-1.728.48-.128.06399-.288.128-.48.192-.128.064-.224.096-.288.096l-.672.67199c-.256.38401-.48.89601-.672 1.53601-.192.576-.288 1.248-.288 2.01599V61.224c0 .768.096 1.44.288 2.016.192.64.416 1.152.672 1.536.32.32.544.512.672.576.256.192.512.32.768.384.576.256 1.152.416 1.728.48h32.928v1.728h-31.392c-1.408 0-2.24-.032-2.496-.096-.704-.064-1.344-.288-1.92-.672-.064-.064-.192-.128-.384-.192-.192-.128-.32-.224-.384-.288-.32-.192-.576-.448-.768-.768-.384-.448-.704-.992-.96-1.632-.32-.768-.48-1.568-.48-2.4V7.752c0-.896.16-1.664.48-2.30401.32-.76799.64-1.31199.96-1.63199.192-.32.448-.576.768-.768.192-.192.448-.352.768-.48.512-.448 1.152-.70401 1.92-.768.512-.064 1.344-.096 2.496-.096h12.192zM313.44 6.12H342.048v1.728h-32.256c-.064 0-.192.096-.384.288V61.512l.384.384h32.256v1.728H312c-.64 0-1.12-.032-1.44-.096-.64 0-1.12-.032-1.44-.096-.256 0-.48-.032-.672-.096-.192 0-.352-.128-.48-.384-.192-.832-.288-1.792-.288-2.88v-50.4c0-1.024.096-1.984.288-2.88.128-.192.288-.352.48-.48001.32 0 .544-.032.672-.09599h.672c.32-.064.576-.096.768-.096h2.88zm.288 4.416h28.32v1.728H313.824V28.68h24.288v1.728h-24.288v2.688h24.288v1.728h-24.288v2.688h24.288v1.728h-24.288V57.48H342.048v1.728h-29.76c-.128 0-.192-.064-.192-.192V10.632c.064-.064.128-.096.192-.096h1.44zm78.848 35.232v.576c.192 3.136-.256 5.984-1.344 8.544-1.024 2.432-2.592 4.672-4.704 6.72-1.792 1.664-3.904 3.04-6.336 4.128-3.904 1.664-8.224 2.336-12.96 2.016-.32 0-.8-.064-1.44-.192-.32 0-.8-.064-1.44-.192h-.384c-.128-.064-.256-.096-.384-.096-.256-.128-.48-.192-.672-.192-.192 0-.448-.032-.768-.096-.256-.128-.48-.224-.672-.288-.256-.064-.704-.224-1.344-.48-.384-.064-.8-.224-1.248-.48-.128-.064-.352-.16-.672-.288l-.576-.288-.576-.288-.576-.288c-2.624-1.536-4.864-3.456-6.72-5.76-1.344-1.728-2.336-3.328-2.976-4.8-.32-.64-.544-1.056-.672-1.248l-.192-.48 1.536-.576c.064.064.128.192.192.384s.256.608.576 1.248c.64 1.408 1.568 2.88 2.784 4.416 1.664 2.112 3.744 3.904 6.24 5.376l.576.288.576.288 1.152.576c.256.128.64.256 1.152.384.448.192.864.352 1.248.48.128 0 .32.032.576.096.32.064.576.128.768.192.064.064.16.128.288.192h.384c.128.064.352.096.672.096.512.128.96.192 1.344.192.64.128 1.12.192 1.44.192 4.352.32 8.384-.288 12.096-1.824 2.24-1.024 4.224-2.304 5.952-3.84 1.92-1.92 3.328-4 4.224-6.24 1.024-2.368 1.44-4.96 1.248-7.776v-.48c0-.064-.032-.128-.096-.192v-.288l-.192-1.056c0-.256-.064-.576-.192-.96l-.384-1.056c-.192-.512-.32-.832-.384-.96-.128-.32-.288-.64-.48-.96l-.48-.96c-.064-.064-.16-.224-.288-.48l-.384-.384c-1.408-1.856-3.456-3.552-6.144-5.088-1.792-1.024-4-1.984-6.624-2.88-1.728-.576-2.848-.928-3.36-1.056l-1.632-.48-1.632-.48c-2.688-.768-4.608-1.408-5.76-1.92-1.984-.832-3.424-1.792-4.32-2.88l-.192-.192-.192-.192-.096-.192c-.064-.128-.128-.192-.192-.192l-.288-.48-.192-.192c0-.128-.032-.224-.096-.288 0-.064-.064-.224-.192-.48-.064-.064-.096-.224-.096-.48-.128-.256-.192-.448-.192-.576l-.096-.48c-.064-.128-.096-.32-.096-.576v-1.728c0-.128.032-.32.096-.576.064-.256.096-.448.096-.576l.192-.48.192-.48c.448-1.28 1.248-2.432 2.4-3.456.96-.768 2.176-1.472 3.648-2.112.512-.128.864-.224 1.056-.28801h.48c.256-.06399.448-.12799.576-.19199.128-.064.32-.096.576-.096.128-.064.32-.096.576-.096.192-.064.544-.096 1.056-.096.256-.064.608-.096 1.056-.096h1.056c.96 0 1.632.032 2.016.096.128 0 .288.032.48.096h.48c.128.064.288.128.48.192h.48c.192 0 .32.032.384.096.064 0 .128.032.192.09599h.288c.384.12801.64.19201.768.19201 2.048.704 3.744 1.632 5.088 2.784.768.576 1.6 1.408 2.496 2.496l.48.864-1.344.576H381.728v-.192c-.064 0-.096-.032-.096-.096s-.032-.128-.096-.192c-.768-.896-1.472-1.632-2.112-2.208-1.536-1.152-3.072-1.952-4.608-2.4-.128-.064-.384-.16-.768-.288-.128 0-.256-.032-.384-.096h-.384c-.384-.128-.672-.192-.864-.192-.128-.064-.416-.096-.864-.096-.384-.064-.992-.096-1.824-.096-.128-.064-.32-.064-.576 0h-1.44c-.128.064-.288.128-.48.192h-.96c-.128.064-.288.096-.48.096-.256.064-.576.16-.96.288-.256.064-.576.16-.96.288-1.216.384-2.272.96-3.168 1.728-.96.832-1.6 1.76-1.92 2.784l-.192.384-.096.384c-.064.064-.096.192-.096.384s-.032.352-.096.48v.96c.064.128.096.32.096.576V20.136c.064.064.096.128.096.192s.032.16.096.288V21l.096.096.192.384c0 .064.032.128.096.192l.096.192c0 .064.064.16.192.288.064 0 .096.032.096.096s.032.128.096.192l.192.192.096.192c.96.96 2.24 1.76 3.84 2.4 1.216.576 3.072 1.216 5.568 1.92l1.536.384 1.728.576c.96.256 2.08.608 3.36 1.056 2.368.768 4.704 1.76 7.008 2.976 1.536.896 2.688 1.664 3.456 2.304l.864.672c.128.192.384.48.768.864.32.192.576.448.768.768l.768.96.384.48c.064.064.16.224.288.48l.288.576c.128.192.224.352.288.48.128.192.32.544.576 1.056 0 .128.064.32.192.576.128.256.192.448.192.576l.384 1.056.288 1.152.192 1.152c0 .256.032.416.096.48zM357.92 10.344c-3.136 2.624-4.352 5.984-3.648 10.08.32 2.176 1.12 3.936 2.4 5.28 1.216 1.216 2.944 2.336 5.184 3.36 1.664.768 3.712 1.472 6.144 2.112 1.408.384 2.496.672 3.264.864.32.128.832.32 1.536.576.704.192 1.248.352 1.632.48 2.432.896 4.512 1.792 6.24 2.688 2.432 1.408 4.224 2.88 5.376 4.416l.288.384.192.384.48.672c.064.064.128.192.192.384s.128.352.192.48c0 .128.032.288.096.48.064.128.128.224.192.288l.288.864c.128.384.192.672.192.864l.192.864v.768c.192 2.432-.128 4.64-.96 6.624-.832 2.048-2.08 3.808-3.744 5.28-1.6 1.472-3.296 2.592-5.088 3.36-3.2 1.408-6.848 1.984-10.944 1.728-.256 0-.704-.064-1.344-.192-.128-.064-.352-.096-.672-.096-.256-.064-.448-.096-.576-.096-.256 0-.448-.032-.576-.096-.064-.064-.16-.096-.288-.096-.128 0-.224-.032-.288-.096l-1.152-.288c-.64-.192-1.376-.448-2.208-.768-.256-.064-.576-.224-.96-.48-.064-.064-.16-.096-.288-.096-.128 0-.224-.032-.288-.096 0-.064-.064-.128-.192-.192l-.192-.096c-2.176-1.28-4.032-2.848-5.568-4.704-.896-1.216-1.728-2.56-2.496-4.032-.256-.448-.448-.832-.576-1.152l-.096-.384 1.44-.576c.128.32.352.8.672 1.44.96 1.664 1.728 2.88 2.304 3.648 1.472 1.856 3.168 3.296 5.088 4.32.064.064.192.16.384.288.064 0 .128.032.192.096.128 0 .224.032.288.096l.576.288c.192.064.32.128.384.192l.576.288c.256.064.48.128.672.192l.768.192c.192.064.544.16 1.056.288.064 0 .16.032.288.096h.288c.064 0 .128.032.192.096.128.064.224.096.288.096.128 0 .32.032.576.096h.672c.512.128.896.192 1.152.192 3.84.256 7.232-.256 10.176-1.536 1.664-.768 3.232-1.792 4.704-3.072 1.472-1.472 2.56-3.04 3.264-4.704.768-1.792 1.088-3.744.96-5.856l-.096-.384v-.384l-.192-.768c0-.064-.032-.192-.096-.384v-.384l-.288-.672c0-.064-.096-.288-.288-.672-.064-.192-.16-.416-.288-.672l-.384-.672c-.064 0-.096-.064-.096-.192 0-.064-.032-.128-.096-.192l-.288-.288c-1.152-1.472-2.752-2.784-4.8-3.936-1.088-.64-3.072-1.504-5.952-2.592-.704-.256-1.76-.576-3.168-.96-.832-.32-1.92-.64-3.264-.96-2.496-.704-4.608-1.44-6.336-2.208-2.368-1.024-4.256-2.272-5.664-3.744-1.6-1.6-2.56-3.616-2.88-6.048-.192-1.024-.224-2.144-.096-3.36 0-.064.032-.288.096-.672.064-.384.128-.672.192-.864 0-.128.032-.288.096-.48s.096-.32.096-.384c.064-.128.16-.384.288-.768.64-1.856 1.824-3.552 3.552-5.088 1.216-1.088 2.912-2.048 5.088-2.88.192 0 .416-.064.672-.192.256-.128.48-.192.672-.192.128 0 .352-.032.672-.096.32-.064.544-.128.672-.192h.288c.192-.064.32-.09601.384-.09601.128-.06399.352-.09599.672-.09599.128-.064.32-.096.576-.096.32 0 .544-.032.672-.096 3.392-.256 6.528.064 9.408.96 2.432.768 4.576 1.92 6.432 3.456 1.28 1.088 2.368 2.24 3.264 3.456.064.064.128.16.192.288.064.128.128.224.192.288.128.256.224.416.288.48l.192.48-1.536.576c-.064-.064-.128-.16-.192-.288l-.192-.384-.288-.576c-.896-1.152-1.888-2.176-2.976-3.072-1.6-1.28-3.584-2.336-5.952-3.16801-2.752-.83199-5.632-1.11999-8.64-.86399-.128 0-.352.032-.672.096-.256.064-.448.096-.576.096h-.576c-.064 0-.192.032-.384.096-.128.064-.224.09599-.288.09599-.128.06401-.352.12801-.672.19201h-.576c-.256.128-.64.256-1.152.384-1.792.64-3.328 1.504-4.608 2.592zm-9.408 10.944c-.064-.32-.128-.704-.192-1.152V18.12c0-.512.032-.896.096-1.152 0-.064.032-.352.096-.864.064-.576.128-.992.192-1.248.128-.512.224-.864.288-1.056 0-.128.032-.288.096-.48l.288-.576c.96-2.688 2.528-4.96 4.704-6.816 1.984-1.6 4.16-2.816 6.528-3.64801.192-.06399.448-.12799.768-.19199.384-.128.672-.22401.864-.288.448-.128.992-.256 1.632-.38401h.288c.192-.06399.352-.09599.48-.09599.064-.064.192-.096.384-.096s.32-.032.384-.096h.672c.384-.064.672-.096.864-.096.32-.064003.8-.096005 1.44-.096005h.672c.32-.063999.576-.095999.768-.095999.32 0 .768.032 1.344.095999.64 0 1.12.032002 1.44.096005.192 0 .448.032.768.096s.544.096.672.096c.256.064.704.16 1.344.288.256 0 .448.032.576.096.064 0 .16.032.288.096.192 0 .32.032.384.096.128 0 .32.032.576.09599.32.06401.544.12801.672.19201 2.816.896 5.408 2.304 7.776 4.22399 1.728 1.34401 3.104 2.78401 4.128 4.32001.256.384.416.672.48.864.064.128.16.256.288.384 0 .128.064.256.192.384l.288.672-1.536.576-.288-.576c-.064-.128-.096-.224-.096-.288-.128-.128-.192-.224-.192-.288l-.288-.288c-.064-.192-.128-.352-.192-.48-.96-1.408-2.24-2.752-3.84-4.032-1.984-1.664-4.384-2.944-7.2-3.84-.256-.128-.64-.256-1.152-.384-.064 0-.288-.064-.672-.192-.256 0-.448-.032-.576-.096-.128-.064-.352-.096-.672-.096-.256 0-.448-.032-.576-.096-.128-.064-.352-.09601-.672-.09601-.256 0-.448-.032-.576-.09599-.256-.064-.704-.096-1.344-.096-.576 0-1.024-.032-1.344-.096-.192 0-.448.032-.768.096h-.576c-.64 0-1.12.032-1.44.096-.128 0-.352.032-.672.09599h-.768c-.128.06401-.352.09601-.672.09601-.064 0-.192.032-.384.096-.192 0-.32.032-.384.096-.64.12799-1.152.224-1.536.288-.128.064-.352.16-.672.28799-.32.06401-.576.12801-.768.19201-2.112.64-4.096 1.76-5.952 3.35999-2.048 1.72801-3.488 3.77601-4.32 6.14401 0 .128-.032.288-.096.48s-.128.352-.192.48c-.128.384-.224.704-.288.96 0 .064-.096.704-.288 1.92-.064.192-.096.512-.096.96v1.92c.064.448.128.768.192.96l.096 1.056c.064.064.128.224.192.48s.096.416.096.48c0 .128.032.32.096.576.064.192.128.352.192.48l.48.96c0 .064.064.224.192.48l.288.48.576.864.576.864.384.48.384.384c1.664 1.728 3.808 3.168 6.432 4.32 1.536.64 3.776 1.408 6.72 2.304l1.632.48 1.536.384c.384.128.928.32 1.632.576.768.192 1.248.32 1.44.384 2.304.768 4.16 1.568 5.568 2.4 1.792.96 3.136 2.048 4.032 3.264l.192.288c.064.064.096.128.096.192.064.128.192.288.384.48v.288l.192.192c.128.256.192.448.192.576l.192.48c.064.128.096.32.096.576l.096.576c.064.064.096.16.096.288v.384c.128 1.728-.096 3.296-.672 4.704-.704 1.472-1.6 2.72-2.688 3.744-1.088 1.088-2.432 1.952-4.032 2.592-1.344.64-2.816 1.056-4.416 1.248-1.024.192-2.528.224-4.512.096h-.576c-.192-.064-.352-.096-.48-.096-.128-.064-.32-.096-.576-.096-.192 0-.352-.032-.48-.096-.192 0-.352-.032-.48-.096h-.288c-.064-.064-.128-.096-.192-.096-.384-.128-.704-.192-.96-.192-.384-.128-.672-.256-.864-.384l-.864-.288c-.064 0-.192-.064-.384-.192-.128-.128-.256-.192-.384-.192s-.256-.064-.384-.192c-.128 0-.256-.064-.384-.192-1.664-.896-3.104-2.144-4.32-3.744-.704-.832-1.376-1.888-2.016-3.168l-.48-.96-.096-.288 1.536-.672c0 .064.032.192.096.384 0 .064.032.128.096.192l.288.576c.512 1.088 1.12 2.08 1.824 2.976 1.088 1.344 2.4 2.432 3.936 3.264.128.128.224.192.288.192l.384.192c.256.128.48.224.672.288l.768.288c.064.064.192.128.384.192s.32.096.384.096l.864.288c.192 0 .352.032.48.096.192 0 .32.032.384.096.128 0 .288.032.48.096h.48c.128 0 .288.032.48.096h.48c1.6.128 2.976.096 4.128-.096 1.6-.192 2.976-.544 4.128-1.056 2.88-1.28 4.8-3.136 5.76-5.568.512-1.152.704-2.464.576-3.936v-.48c-.064-.128-.096-.288-.096-.48 0-.064-.032-.128-.096-.192v-.288c-.064-.064-.096-.128-.096-.192-.064-.128-.096-.224-.096-.288l-.192-.384v-.192c-.064-.064-.096-.128-.096-.192-.128-.128-.224-.256-.288-.384-.064-.064-.096-.128-.096-.192l-.192-.192c-.64-.896-1.792-1.824-3.456-2.784-1.472-.832-3.264-1.6-5.376-2.304-1.28-.384-2.272-.704-2.976-.96l-1.44-.384-1.632-.48c-2.432-.64-4.736-1.44-6.912-2.4-.256-.064-.576-.192-.96-.384s-.672-.32-.864-.384c-.128-.064-.736-.416-1.824-1.056-.128-.128-.416-.32-.864-.576-.384-.32-.672-.576-.864-.768-.064-.064-.192-.16-.384-.288-.192-.192-.352-.32-.48-.384l-.864-.864-.384-.384-.384-.48c-.064-.128-.192-.288-.384-.48-.128-.256-.224-.416-.288-.48-.32-.384-.544-.736-.672-1.056l-.288-.48-.288-.576c-.064-.256-.224-.64-.48-1.152-.064-.192-.16-.544-.288-1.056 0-.064-.032-.16-.096-.288-.064-.192-.128-.352-.192-.48v-.384c-.064-.128-.096-.288-.096-.48 0-.256-.032-.448-.096-.576zm55.427 46.752h-1.728V1.608h1.728V68.04zm4.416 0h-1.728V1.608h1.728V68.04zm2.688 0V1.608h1.632V68.04h-1.632zm57.846-22.272v.576c.192 3.136-.256 5.984-1.344 8.544-1.024 2.432-2.592 4.672-4.704 6.72-1.792 1.664-3.904 3.04-6.336 4.128-3.904 1.664-8.224 2.336-12.96 2.016-.32 0-.8-.064-1.44-.192-.32 0-.8-.064-1.44-.192h-.384c-.128-.064-.256-.096-.384-.096-.256-.128-.48-.192-.672-.192-.192 0-.448-.032-.768-.096-.256-.128-.48-.224-.672-.288-.256-.064-.704-.224-1.344-.48-.384-.064-.8-.224-1.248-.48-.128-.064-.352-.16-.672-.288l-.576-.288-.576-.288-.576-.288c-2.624-1.536-4.864-3.456-6.72-5.76-1.344-1.728-2.336-3.328-2.976-4.8-.32-.64-.544-1.056-.672-1.248l-.192-.48 1.536-.576c.064.064.128.192.192.384s.256.608.576 1.248c.64 1.408 1.568 2.88 2.784 4.416 1.664 2.112 3.744 3.904 6.24 5.376l.576.288.576.288 1.152.576c.256.128.64.256 1.152.384.448.192.864.352 1.248.48.128 0 .32.032.576.096.32.064.576.128.768.192.064.064.16.128.288.192h.384c.128.064.352.096.672.096.512.128.96.192 1.344.192.64.128 1.12.192 1.44.192 4.352.32 8.384-.288 12.096-1.824 2.24-1.024 4.224-2.304 5.952-3.84 1.92-1.92 3.328-4 4.224-6.24 1.024-2.368 1.44-4.96 1.248-7.776v-.48c0-.064-.032-.128-.096-.192v-.288l-.192-1.056c0-.256-.064-.576-.192-.96l-.384-1.056c-.192-.512-.32-.832-.384-.96-.128-.32-.288-.64-.48-.96l-.48-.96c-.064-.064-.16-.224-.288-.48l-.384-.384c-1.408-1.856-3.456-3.552-6.144-5.088-1.792-1.024-4-1.984-6.624-2.88-1.728-.576-2.848-.928-3.36-1.056l-1.632-.48-1.633-.48c-2.687-.768-4.607-1.408-5.759-1.92-1.984-.832-3.424-1.792-4.32-2.88l-.192-.192-.192-.192-.097-.192c-.063-.128-.127-.192-.191-.192l-.288-.48-.192-.192c0-.128-.032-.224-.096-.288 0-.064-.064-.224-.192-.48-.064-.064-.096-.224-.096-.48-.128-.256-.192-.448-.192-.576l-.096-.48c-.065-.128-.097-.32-.097-.576v-1.728c0-.128.032-.32.097-.576.064-.256.096-.448.096-.576l.192-.48.192-.48c.448-1.28 1.248-2.432 2.4-3.456.96-.768 2.176-1.472 3.648-2.112.512-.128.864-.224 1.056-.28801h.48c.256-.06399.448-.12799.576-.19199.128-.064.32-.096.576-.096.128-.064.32-.096.576-.096.192-.064.544-.096 1.056-.096.256-.064.607-.096 1.055-.096h1.057c.96 0 1.632.032 2.016.096.128 0 .288.032.479.096h.481c.128.064.288.128.48.192h.48c.192 0 .32.032.384.096.064 0 .128.032.192.09599h.288c.384.12801.64.19201.768.19201 2.048.704 3.744 1.632 5.088 2.784.768.576 1.6 1.408 2.496 2.496l.48.864-1.344.576H458.041v-.192c-.064 0-.096-.032-.096-.096s-.032-.128-.096-.192c-.768-.896-1.472-1.632-2.112-2.208-1.536-1.152-3.072-1.952-4.608-2.4-.128-.064-.384-.16-.768-.288-.128 0-.256-.032-.384-.096h-.384c-.384-.128-.672-.192-.864-.192-.128-.064-.417-.096-.864-.096-.384-.064-.992-.096-1.824-.096-.128-.064-.32-.064-.576 0h-1.44c-.128.064-.288.128-.48.192h-.96c-.128.064-.288.096-.48.096-.256.064-.576.16-.96.288-.256.064-.576.16-.96.288-1.216.384-2.272.96-3.168 1.728-.96.832-1.6 1.76-1.92 2.784l-.192.384-.096.384c-.064.064-.096.192-.096.384s-.032.352-.096.48v.96c.064.128.096.32.096.576V20.136c.064.064.096.128.096.192s.032.16.096.288V21l.096.096.192.384c0 .064.032.128.096.192l.096.192c0 .064.064.16.192.288.064 0 .096.032.096.096s.032.128.096.192l.192.192.096.192c.96.96 2.24 1.76 3.84 2.4 1.216.576 3.072 1.216 5.568 1.92l1.536.384 1.728.576c.96.256 2.08.608 3.36 1.056 2.368.768 4.704 1.76 7.008 2.976 1.536.896 2.688 1.664 3.456 2.304l.864.672c.128.192.384.48.768.864.32.192.576.448.768.768l.768.96.384.48c.064.064.16.224.288.48l.288.576c.128.192.224.352.288.48.128.192.32.544.576 1.056 0 .128.064.32.192.576.128.256.192.448.192.576l.383 1.056.289 1.152.191 1.152c0 .256.033.416.097.48zm-34.656-35.424c-3.136 2.624-4.352 5.984-3.648 10.08.32 2.176 1.12 3.936 2.399 5.28 1.217 1.216 2.945 2.336 5.185 3.36 1.664.768 3.712 1.472 6.143 2.112 1.409.384 2.497.672 3.265.864.32.128.832.32 1.536.576.704.192 1.248.352 1.632.48 2.432.896 4.512 1.792 6.24 2.688 2.432 1.408 4.224 2.88 5.376 4.416l.288.384.192.384.48.672c.064.064.128.192.192.384s.128.352.192.48c0 .128.032.288.096.48.064.128.128.224.192.288l.288.864c.128.384.192.672.192.864l.192.864v.768c.192 2.432-.128 4.64-.96 6.624-.832 2.048-2.08 3.808-3.744 5.28-1.6 1.472-3.296 2.592-5.088 3.36-3.2 1.408-6.848 1.984-10.944 1.728-.256 0-.704-.064-1.344-.192-.128-.064-.352-.096-.672-.096-.256-.064-.448-.096-.576-.096-.256 0-.448-.032-.576-.096-.064-.064-.16-.096-.288-.096-.128 0-.224-.032-.288-.096l-1.152-.288c-.64-.192-1.376-.448-2.208-.768-.256-.064-.576-.224-.96-.48-.064-.064-.16-.096-.288-.096-.128 0-.224-.032-.288-.096 0-.064-.064-.128-.192-.192l-.192-.096c-2.176-1.28-4.032-2.848-5.568-4.704-.896-1.216-1.728-2.56-2.496-4.032-.256-.448-.448-.832-.576-1.152l-.096-.384 1.44-.576c.128.32.352.8.672 1.44.96 1.664 1.728 2.88 2.304 3.648 1.472 1.856 3.168 3.296 5.088 4.32.064.064.192.16.384.288.064 0 .128.032.192.096.128 0 .224.032.288.096l.576.288c.192.064.32.128.384.192l.576.288c.256.064.48.128.672.192l.768.192c.192.064.544.16 1.056.288.064 0 .16.032.288.096h.288c.064 0 .128.032.192.096.128.064.224.096.288.096.128 0 .32.032.576.096h.672c.512.128.896.192 1.152.192 3.84.256 7.232-.256 10.176-1.536 1.664-.768 3.232-1.792 4.704-3.072 1.472-1.472 2.56-3.04 3.264-4.704.768-1.792 1.088-3.744.96-5.856l-.096-.384v-.384l-.192-.768c0-.064-.032-.192-.096-.384v-.384l-.288-.672c0-.064-.096-.288-.288-.672-.064-.192-.16-.416-.288-.672l-.384-.672c-.064 0-.096-.064-.096-.192 0-.064-.032-.128-.096-.192l-.288-.288c-1.152-1.472-2.752-2.784-4.8-3.936-1.088-.64-3.072-1.504-5.952-2.592-.704-.256-1.76-.576-3.168-.96-.832-.32-1.92-.64-3.264-.96-2.496-.704-4.608-1.44-6.336-2.208-2.368-1.024-4.256-2.272-5.664-3.744-1.6-1.6-2.56-3.616-2.88-6.048-.192-1.024-.224-2.144-.096-3.36 0-.064.032-.288.096-.672.064-.384.128-.672.192-.864 0-.128.032-.288.096-.48s.096-.32.096-.384c.064-.128.16-.384.288-.768.64-1.856 1.824-3.552 3.552-5.088 1.216-1.088 2.912-2.048 5.088-2.88.192 0 .416-.064.672-.192.256-.128.48-.192.672-.192.128 0 .352-.032.672-.096.32-.064.544-.128.672-.192h.288c.192-.064.32-.09601.384-.09601.128-.06399.352-.09599.672-.09599.128-.064.32-.096.576-.096.32 0 .544-.032.672-.096 3.392-.256 6.528.064 9.408.96 2.432.768 4.576 1.92 6.432 3.456 1.28 1.088 2.368 2.24 3.264 3.456.064.064.128.16.192.288.064.128.128.224.192.288.128.256.224.416.288.48l.192.48-1.536.576c-.064-.064-.128-.16-.192-.288l-.192-.384-.288-.576c-.896-1.152-1.888-2.176-2.976-3.072-1.6-1.28-3.584-2.336-5.952-3.16801-2.752-.83199-5.632-1.11999-8.64-.86399-.128 0-.352.032-.672.096-.256.064-.448.096-.576.096h-.576c-.064 0-.192.032-.384.096-.128.064-.224.09599-.288.09599-.128.06401-.352.12801-.672.19201h-.576c-.256.128-.64.256-1.152.384-1.792.64-3.328 1.504-4.608 2.592zm-9.408 10.944c-.064-.32-.128-.704-.192-1.152V18.12c0-.512.032-.896.096-1.152 0-.064.032-.352.096-.864.064-.576.128-.992.192-1.248.128-.512.224-.864.288-1.056 0-.128.032-.288.096-.48l.288-.576c.96-2.688 2.528-4.96 4.704-6.816 1.984-1.6 4.16-2.816 6.528-3.64801.192-.06399.448-.12799.768-.19199.384-.128.672-.22401.864-.288.448-.128.992-.256 1.632-.38401h.288c.192-.06399.352-.09599.48-.09599.064-.064.192-.096.384-.096s.32-.032.384-.096h.672c.384-.064.672-.096.864-.096.32-.064003.8-.096005 1.44-.096005h.672c.32-.063999.576-.095999.768-.095999.32 0 .768.032 1.344.095999.64 0 1.12.032002 1.44.096005.192 0 .448.032.768.096s.544.096.672.096c.256.064.704.16 1.344.288.256 0 .448.032.576.096.064 0 .16.032.288.096.192 0 .32.032.384.096.128 0 .32.032.576.09599.32.06401.544.12801.672.19201 2.816.896 5.408 2.304 7.776 4.22399 1.728 1.34401 3.104 2.78401 4.128 4.32001.256.384.416.672.48.864.064.128.16.256.288.384 0 .128.064.256.192.384l.288.672-1.536.576-.288-.576c-.064-.128-.096-.224-.096-.288-.128-.128-.192-.224-.192-.288l-.288-.288c-.064-.192-.128-.352-.192-.48-.96-1.408-2.24-2.752-3.84-4.032-1.984-1.664-4.384-2.944-7.2-3.84-.256-.128-.64-.256-1.152-.384-.064 0-.288-.064-.672-.192-.256 0-.448-.032-.576-.096-.128-.064-.352-.096-.672-.096-.256 0-.448-.032-.576-.096-.128-.064-.352-.09601-.672-.09601-.256 0-.448-.032-.576-.09599-.256-.064-.704-.096-1.344-.096-.576 0-1.024-.032-1.344-.096-.192 0-.448.032-.768.096h-.576c-.64 0-1.12.032-1.44.096-.128 0-.352.032-.672.09599h-.768c-.128.06401-.352.09601-.672.09601-.064 0-.192.032-.384.096-.192 0-.32.032-.384.096-.64.12799-1.152.224-1.536.288-.128.064-.352.16-.672.28799-.32.06401-.576.12801-.768.19201-2.112.64-4.096 1.76-5.952 3.35999-2.048 1.72801-3.488 3.77601-4.32 6.14401 0 .128-.032.288-.096.48s-.128.352-.192.48c-.128.384-.224.704-.289.96 0 .064-.095.704-.287 1.92-.064.192-.096.512-.096.96v1.92c.064.448.128.768.192.96l.096 1.056c.064.064.128.224.192.48s.096.416.096.48c0 .128.032.32.096.576.064.192.128.352.192.48l.48.96c0 .064.064.224.192.48l.288.48.576.864.576.864.384.48.384.384c1.664 1.728 3.808 3.168 6.432 4.32 1.536.64 3.776 1.408 6.72 2.304l1.632.48 1.536.384c.384.128.928.32 1.632.576.768.192 1.248.32 1.44.384 2.304.768 4.16 1.568 5.568 2.4 1.792.96 3.136 2.048 4.032 3.264l.192.288c.064.064.096.128.096.192.064.128.192.288.384.48v.288l.192.192c.128.256.192.448.192.576l.192.48c.064.128.096.32.096.576l.096.576c.064.064.096.16.096.288v.384c.128 1.728-.096 3.296-.672 4.704-.704 1.472-1.6 2.72-2.688 3.744-1.088 1.088-2.432 1.952-4.032 2.592-1.344.64-2.816 1.056-4.416 1.248-1.024.192-2.528.224-4.512.096h-.576c-.192-.064-.352-.096-.48-.096-.128-.064-.32-.096-.576-.096-.192 0-.352-.032-.48-.096-.192 0-.352-.032-.48-.096h-.288c-.064-.064-.128-.096-.192-.096-.384-.128-.704-.192-.96-.192-.384-.128-.672-.256-.864-.384l-.864-.288c-.064 0-.192-.064-.384-.192-.128-.128-.256-.192-.384-.192s-.256-.064-.384-.192c-.128 0-.256-.064-.384-.192-1.664-.896-3.104-2.144-4.32-3.744-.704-.832-1.376-1.888-2.016-3.168l-.48-.96-.096-.288 1.536-.672c0 .064.032.192.096.384 0 .064.032.128.096.192l.288.576c.512 1.088 1.12 2.08 1.824 2.976 1.088 1.344 2.4 2.432 3.936 3.264.128.128.224.192.288.192l.384.192c.256.128.48.224.672.288l.768.288c.064.064.192.128.384.192s.32.096.384.096l.864.288c.192 0 .352.032.48.096.192 0 .32.032.384.096.128 0 .288.032.48.096h.48c.128 0 .288.032.48.096h.479c1.601.128 2.977.096 4.129-.096 1.6-.192 2.976-.544 4.128-1.056 2.88-1.28 4.8-3.136 5.76-5.568.512-1.152.704-2.464.576-3.936v-.48c-.064-.128-.096-.288-.096-.48 0-.064-.032-.128-.096-.192v-.288c-.064-.064-.096-.128-.096-.192-.064-.128-.096-.224-.096-.288l-.192-.384v-.192c-.064-.064-.096-.128-.096-.192-.128-.128-.224-.256-.288-.384-.064-.064-.096-.128-.096-.192l-.192-.192c-.64-.896-1.792-1.824-3.456-2.784-1.472-.832-3.264-1.6-5.376-2.304-1.28-.384-2.272-.704-2.976-.96l-1.44-.384-1.632-.48c-2.432-.64-4.736-1.44-6.912-2.4-.256-.064-.576-.192-.96-.384s-.672-.32-.864-.384c-.128-.064-.736-.416-1.824-1.056-.128-.128-.416-.32-.864-.576-.384-.32-.672-.576-.864-.768-.064-.064-.192-.16-.384-.288-.192-.192-.352-.32-.48-.384l-.864-.864-.384-.384-.384-.48c-.064-.128-.192-.288-.384-.48-.128-.256-.224-.416-.288-.48-.32-.384-.544-.736-.673-1.056l-.287-.48-.288-.576c-.064-.256-.224-.64-.48-1.152-.064-.192-.16-.544-.288-1.056 0-.064-.032-.16-.096-.288-.064-.192-.128-.352-.192-.48v-.384c-.064-.128-.096-.288-.096-.48 0-.256-.032-.448-.096-.576z"/>
</svg>